<svg width="28" height="28" viewBox="0 0 28 28" fill="none" xmlns="http://www.w3.org/2000/svg">
<path d="M14.0046 0C8.1597 0 6.4503 0.00602964 6.11802 0.0335937C4.91856 0.133298 4.17217 0.322155 3.35903 0.727002C2.73238 1.03817 2.23817 1.39888 1.75041 1.9045C0.862118 2.82661 0.323758 3.96104 0.128872 5.30953C0.0341201 5.96417 0.00655603 6.09769 0.000957085 9.44155C-0.00119636 10.5562 0.000957085 12.0231 0.000957085 13.9907C0.000957085 19.8308 0.00741741 21.5385 0.0354121 21.8701C0.132317 23.0373 0.31536 23.7716 0.702979 24.5749C1.44376 26.1124 2.85857 27.2667 4.52534 27.6973C5.10246 27.8459 5.73988 27.9278 6.55819 27.9665C6.90489 27.9816 10.4387 27.9924 13.9746 27.9924C17.5106 27.9924 21.0465 27.9881 21.3846 27.9708C22.3321 27.9263 22.8823 27.8524 23.4907 27.6952C24.3171 27.4833 25.0874 27.0935 25.7476 26.553C26.4078 26.0126 26.942 25.3345 27.3131 24.5662C27.6931 23.7824 27.8859 23.0201 27.9731 21.9139C27.992 21.6727 28 17.8273 28 13.987C28 10.1462 27.9914 6.30786 27.9724 6.06668C27.8841 4.94258 27.6914 4.18672 27.2991 3.38779C26.9771 2.73379 26.6196 2.24539 26.1007 1.74601C25.1747 0.861377 24.042 0.323016 22.692 0.128345C22.038 0.033809 21.9077 0.00581429 18.5613 0H14.0046Z" fill="url(#paint0_radial_2061_3898)"/>
<path d="M14.0046 0C8.1597 0 6.4503 0.00602964 6.11802 0.0335937C4.91856 0.133298 4.17217 0.322155 3.35903 0.727002C2.73238 1.03817 2.23817 1.39888 1.75041 1.9045C0.862118 2.82661 0.323758 3.96104 0.128872 5.30953C0.0341201 5.96417 0.00655603 6.09768 0.000957085 9.44155C-0.00119636 10.5562 0.000957085 12.0231 0.000957085 13.9907C0.000957085 19.8308 0.00741741 21.5385 0.0354121 21.8701C0.132317 23.0373 0.31536 23.7716 0.702979 24.5749C1.44376 26.1124 2.85857 27.2667 4.52534 27.6973C5.10246 27.8459 5.73988 27.9278 6.55819 27.9665C6.90489 27.9816 10.4387 27.9924 13.9746 27.9924C17.5106 27.9924 21.0465 27.9881 21.3846 27.9708C22.3321 27.9263 22.8823 27.8524 23.4907 27.6952C24.3171 27.4833 25.0874 27.0935 25.7476 26.553C26.4078 26.0126 26.942 25.3345 27.3131 24.5662C27.6931 23.7824 27.8859 23.0201 27.9731 21.9139C27.992 21.6727 28 17.8273 28 13.987C28 10.1462 27.9914 6.30786 27.9724 6.06668C27.8841 4.94258 27.6914 4.18672 27.2991 3.38779C26.9771 2.73379 26.6196 2.24539 26.1007 1.74601C25.1747 0.861377 24.042 0.323016 22.692 0.128345C22.038 0.033809 21.9077 0.00581429 18.5613 0H14.0046Z" fill="url(#paint1_radial_2061_3898)"/>
<path d="M13.9981 3.66083C11.1908 3.66083 10.8385 3.6731 9.73596 3.72328C8.63555 3.77367 7.88443 3.94788 7.2272 4.20349C6.54736 4.46751 5.97067 4.82067 5.39613 5.39542C4.82116 5.96996 4.468 6.54665 4.20313 7.22628C3.94687 7.88373 3.77244 8.63506 3.72291 9.73504C3.67381 10.8376 3.66089 11.1901 3.66089 13.9973C3.66089 16.8046 3.67338 17.1558 3.72334 18.2584C3.77394 19.3588 3.94816 20.1099 4.20356 20.7671C4.46778 21.447 4.82095 22.0237 5.3957 22.5982C5.97002 23.1732 6.54672 23.5272 7.22613 23.7912C7.88379 24.0468 8.63512 24.221 9.73532 24.2714C10.8379 24.3216 11.19 24.3339 13.997 24.3339C16.8044 24.3339 17.1556 24.3216 18.2582 24.2714C19.3586 24.221 20.1106 24.0468 20.7683 23.7912C21.4479 23.5272 22.0237 23.1732 22.598 22.5982C23.173 22.0237 23.5262 21.447 23.791 20.7673C24.0451 20.1099 24.2196 19.3586 24.2713 18.2586C24.3208 17.156 24.3337 16.8046 24.3337 13.9973C24.3337 11.1901 24.3208 10.8378 24.2713 9.73525C24.2196 8.63485 24.0451 7.88373 23.791 7.2265C23.5262 6.54665 23.173 5.96996 22.598 5.39542C22.0231 4.82046 21.4481 4.46729 20.7676 4.20349C20.1087 3.94788 19.3571 3.77367 18.2567 3.72328C17.1541 3.6731 16.8031 3.66083 13.995 3.66083H13.9981ZM13.0708 5.52355C13.346 5.52312 13.6531 5.52355 13.9981 5.52355C16.7579 5.52355 17.085 5.53346 18.1749 5.58299C19.1827 5.62907 19.7297 5.79747 20.094 5.93895C20.5764 6.1263 20.9203 6.35026 21.2819 6.71204C21.6436 7.07382 21.8676 7.41837 22.0554 7.90074C22.1968 8.26467 22.3655 8.81164 22.4113 9.81945C22.4609 10.9091 22.4716 11.2364 22.4716 13.995C22.4716 16.7535 22.4609 17.0809 22.4113 18.1705C22.3652 19.1783 22.1968 19.7253 22.0554 20.0892C21.868 20.5716 21.6436 20.9151 21.2819 21.2766C20.9201 21.6384 20.5766 21.8624 20.094 22.0497C19.7301 22.1918 19.1827 22.3598 18.1749 22.4059C17.0852 22.4554 16.7579 22.4662 13.9981 22.4662C11.238 22.4662 10.9109 22.4554 9.82124 22.4059C8.81343 22.3594 8.26645 22.191 7.90188 22.0495C7.41951 21.8621 7.07495 21.6382 6.71318 21.2764C6.3514 20.9146 6.12744 20.5709 5.93966 20.0884C5.79818 19.7244 5.62956 19.1774 5.5837 18.1696C5.53417 17.08 5.52426 16.7527 5.52426 13.9924C5.52426 11.2321 5.53417 10.9065 5.5837 9.81687C5.62978 8.80906 5.79818 8.26208 5.93966 7.89772C6.12701 7.41535 6.3514 7.0708 6.71318 6.70902C7.07495 6.34725 7.41951 6.12329 7.90188 5.93551C8.26624 5.79338 8.81343 5.62541 9.82124 5.57911C10.7748 5.53604 11.1443 5.52312 13.0708 5.52097V5.52355ZM19.5156 7.23985C19.2703 7.23985 19.0304 7.3126 18.8264 7.44892C18.6224 7.58523 18.4635 7.77898 18.3696 8.00565C18.2757 8.23233 18.2512 8.48175 18.2991 8.72237C18.347 8.963 18.4652 9.18401 18.6387 9.35746C18.8122 9.53092 19.0332 9.64902 19.2739 9.69683C19.5145 9.74464 19.7639 9.72002 19.9906 9.62607C20.2172 9.53212 20.4109 9.37307 20.5471 9.16903C20.6834 8.965 20.7561 8.72514 20.756 8.4798C20.756 7.795 20.2004 7.23942 19.5156 7.23942V7.23985ZM13.9981 8.68911C11.0666 8.68911 8.68982 11.0659 8.68982 13.9973C8.68982 16.9288 11.0666 19.3045 13.9981 19.3045C16.9295 19.3045 19.3056 16.9288 19.3056 13.9973C19.3056 11.0659 16.9293 8.68911 13.9978 8.68911H13.9981ZM13.9981 10.5518C15.9008 10.5518 17.4436 12.0943 17.4436 13.9973C17.4436 15.9001 15.9008 17.4429 13.9981 17.4429C12.0951 17.4429 10.5525 15.9001 10.5525 13.9973C10.5525 12.0943 12.0951 10.5518 13.9981 10.5518Z" fill="white"/>
<defs>
<radialGradient id="paint0_radial_2061_3898" cx="0" cy="0" r="1" gradientUnits="userSpaceOnUse" gradientTransform="translate(7.43754 30.1484) rotate(-90) scale(27.7425 25.8097)">
<stop stop-color="#FFDD55"/>
<stop offset="0.1" stop-color="#FFDD55"/>
<stop offset="0.5" stop-color="#FF543E"/>
<stop offset="1" stop-color="#C837AB"/>
</radialGradient>
<radialGradient id="paint1_radial_2061_3898" cx="0" cy="0" r="1" gradientTransform="matrix(2.4347 12.1598 -50.1358 10.0386 -4.69015 2.01652)" gradientUnits="userSpaceOnUse">
<stop stop-color="#3771C8"/>
<stop offset="0.128" stop-color="#3771C8"/>
<stop offset="1" stop-color="#6600FF" stop-opacity="0"/>
</radialGradient>
</defs>
</svg>
