<svg width="30" height="21" viewBox="0 0 30 21" fill="none" xmlns="http://www.w3.org/2000/svg">
<path d="M3.28667 19.8781C1.9933 19.5367 0.986001 18.5319 0.613208 17.2911C0 15.0054 0 10.2381 0 10.2381C0 10.2381 0 5.47231 0.613208 3.20591C0.986001 1.94581 1.9933 0.961772 3.28667 0.620403C5.61016 0 14.9878 0 14.9878 0C14.9878 0 24.3883 0 26.7118 0.620403C28.0265 0.961772 29.0125 1.94581 29.364 3.20739C30 5.47379 30 10.2396 30 10.2396C30 10.2396 30 15.0054 29.364 17.2926C29.014 18.5319 28.0265 19.5367 26.7118 19.8796C24.3883 20.5 14.9878 20.5 14.9878 20.5C14.9878 20.5 5.60864 20.5 3.28667 19.8796V19.8781ZM12.0085 14.6418L19.787 10.2381L12.0085 5.85672V14.6418Z" fill="#FF0033"/>
<path d="M12.0083 14.6418L19.7868 10.2381L12.0083 5.85669V14.6418Z" fill="white"/>
</svg>
