<svg width="24" height="24" viewBox="0 0 24 24" fill="none" xmlns="http://www.w3.org/2000/svg">
<path d="M2.14502 7.77497V17.505C2.14502 19.405 3.49502 20.185 5.13502 19.245L7.48502 17.905C7.99502 17.615 8.84502 17.585 9.37502 17.855L14.625 20.485C15.155 20.745 16.005 20.725 16.515 20.435L20.845 17.955C21.395 17.635 21.855 16.855 21.855 16.215V6.48497C21.855 4.58497 20.505 3.80497 18.865 4.74497L16.515 6.08497C16.005 6.37497 15.155 6.40497 14.625 6.13497L9.37502 3.51497C8.84502 3.25497 7.99502 3.27497 7.48502 3.56497L3.15502 6.04497C2.59502 6.36497 2.14502 7.14497 2.14502 7.77497Z" stroke="#BBBBBB" stroke-width="1.5" stroke-linecap="round" stroke-linejoin="round"/>
<path d="M8.41504 3.995V16.995" stroke="#BBBBBB" stroke-width="1.5" stroke-linecap="round" stroke-linejoin="round"/>
<path d="M15.585 6.61499V19.995" stroke="#BBBBBB" stroke-width="1.5" stroke-linecap="round" stroke-linejoin="round"/>
</svg>
