<svg width="24" height="24" viewBox="0 0 24 24" fill="none" xmlns="http://www.w3.org/2000/svg">
<path d="M2.28999 7.78V17.51C2.28999 19.41 3.63999 20.19 5.27999 19.25L7.62999 17.91C8.13999 17.62 8.98999 17.59 9.51999 17.86L14.77 20.49C15.3 20.75 16.15 20.73 16.66 20.44L20.99 17.96C21.54 17.64 22 16.86 22 16.22V6.49C22 4.59 20.65 3.81 19.01 4.75L16.66 6.09C16.15 6.38 15.3 6.41 14.77 6.14L9.51999 3.52C8.98999 3.26 8.13999 3.28 7.62999 3.57L3.29999 6.05C2.73999 6.37 2.28999 7.15 2.28999 7.78Z" stroke="black" stroke-width="1.5" stroke-linecap="round" stroke-linejoin="round"/>
<path d="M8.56 4V17" stroke="black" stroke-width="1.5" stroke-linecap="round" stroke-linejoin="round"/>
<path d="M15.73 6.62V20" stroke="black" stroke-width="1.5" stroke-linecap="round" stroke-linejoin="round"/>
</svg>
