<svg width="24" height="24" viewBox="0 0 24 24" fill="none" xmlns="http://www.w3.org/2000/svg">
<path d="M3.03516 11.22V15.71C3.03516 20.2 4.83516 22 9.32516 22H14.7152C19.2052 22 21.0052 20.2 21.0052 15.71V11.22" stroke="#BBBBBB" stroke-width="1.5" stroke-linecap="round" stroke-linejoin="round"/>
<path d="M12.0251 12C13.8551 12 15.2051 10.51 15.0251 8.68L14.3651 2H9.69514L9.02514 8.68C8.84514 10.51 10.1951 12 12.0251 12Z" stroke="#BBBBBB" stroke-width="1.5" stroke-linecap="round" stroke-linejoin="round"/>
<path d="M18.3352 12C20.3552 12 21.8352 10.36 21.6352 8.35L21.3552 5.6C20.9952 3 19.9952 2 17.3752 2H14.3252L15.0252 9.01C15.1952 10.66 16.6852 12 18.3352 12Z" stroke="#BBBBBB" stroke-width="1.5" stroke-linecap="round" stroke-linejoin="round"/>
<path d="M5.66503 12C7.31503 12 8.80503 10.66 8.96503 9.01L9.18503 6.8L9.66503 2H6.61503C3.99503 2 2.99503 3 2.63503 5.6L2.36503 8.35C2.16503 10.36 3.64503 12 5.66503 12Z" stroke="#BBBBBB" stroke-width="1.5" stroke-linecap="round" stroke-linejoin="round"/>
<path d="M12.0251 17C10.3551 17 9.52515 17.83 9.52515 19.5V22H14.5251V19.5C14.5251 17.83 13.6951 17 12.0251 17Z" stroke="#BBBBBB" stroke-width="1.5" stroke-linecap="round" stroke-linejoin="round"/>
</svg>
