<svg width="13" height="17" viewBox="0 0 13 17" fill="none" xmlns="http://www.w3.org/2000/svg">
<path d="M9.78521 7.02275L12.7042 8.06752C13.0986 8.20858 13.0986 8.79142 12.7042 8.93248L9.78521 9.97725C8.67482 10.3741 7.85648 11.3677 7.64449 12.5737L6.93141 16.6256C6.84394 17.1248 6.15903 17.1248 6.07156 16.6256L5.35848 12.5737C5.14648 11.3677 4.32666 10.3741 3.21776 9.97725L0.295758 8.93248C-0.0985859 8.79142 -0.0985859 8.20858 0.295758 8.06752L3.21479 7.02275C4.32518 6.62592 5.14352 5.63231 5.35551 4.42632L6.06859 0.37435C6.15606 -0.124783 6.84097 -0.124783 6.92844 0.37435L7.64152 4.42632C7.85352 5.63231 8.67334 6.62592 9.78224 7.02275H9.78521Z" fill="url(#paint0_linear_2730_7109)"/>
<path d="M6.16699 0.391602C6.23513 0.00278678 6.76194 0.00278678 6.83008 0.391602L7.54297 4.44336C7.76089 5.68305 8.6047 6.70769 9.74902 7.11719L9.76465 7.12305H9.76855L12.6709 8.16211C12.9762 8.27176 12.9762 8.72824 12.6709 8.83789L9.75195 9.88281C8.60606 10.2923 7.76381 11.317 7.5459 12.5566L6.83301 16.6084C6.76487 16.9972 6.23806 16.9972 6.16992 16.6084L5.45703 12.5566C5.23911 11.3169 4.3953 10.2923 3.25098 9.88281L0.329102 8.83789C0.0237645 8.72824 0.0237647 8.27177 0.329102 8.16211L3.24805 7.11719C4.39394 6.70767 5.23619 5.683 5.4541 4.44336L6.16699 0.391602Z" stroke="white" stroke-opacity="0.5" stroke-width="0.2"/>
<defs>
<linearGradient id="paint0_linear_2730_7109" x1="6.5" y1="0" x2="6.5" y2="17" gradientUnits="userSpaceOnUse">
<stop stop-color="#8E62FF"/>
<stop offset="1" stop-color="#F898FF"/>
</linearGradient>
</defs>
</svg>
