<svg width="48" height="48" viewBox="0 0 48 48" fill="none" xmlns="http://www.w3.org/2000/svg">
<path d="M27.02 31.06C27.02 32.71 25.67 34.06 24.02 34.06C23.2 34.06 22.44 33.72 21.9 33.18C21.36 32.64 21.02 31.88 21.02 31.06" stroke="black" stroke-width="1.5" stroke-miterlimit="10"/>
<path d="M24.0198 13.1904C24.8761 13.1905 25.64 13.5846 26.1418 14.2021C25.7058 14.6475 25.3727 15.1941 25.1819 15.8037C25.0617 15.7796 24.941 15.7598 24.8196 15.7451H24.8176C23.9684 15.639 23.1644 15.6995 22.4192 15.9102C20.3044 16.5884 18.7698 18.5725 18.7698 20.9102V23.7998C18.7697 24.1951 18.6881 24.6515 18.5735 25.0645C18.4588 25.4776 18.2942 25.9082 18.094 26.2441L18.092 26.2471L16.9426 28.1572C16.694 28.5707 16.6797 28.9558 16.7893 29.252C16.8993 29.549 17.1629 29.8344 17.6203 29.9893H17.6194C21.7745 31.377 26.2573 31.3774 30.4123 29.9893L30.4143 29.9883C31.1649 29.74 31.5009 28.8465 31.0871 28.1562L29.9377 26.2471L29.9299 26.2354C29.7379 25.9025 29.5772 25.4747 29.4641 25.0625C29.3513 24.6511 29.2698 24.1949 29.2698 23.7998V20.9902C29.8018 20.9548 30.305 20.8152 30.76 20.5918C30.765 20.6974 30.7698 20.8034 30.7698 20.9102V23.7998C30.7698 24.0147 30.8182 24.3301 30.9104 24.666C31.0023 25.001 31.1219 25.2984 31.2297 25.4854H31.2287L32.3723 27.3828L32.3733 27.3848C33.278 28.8936 32.5541 30.8574 30.8869 31.4102L30.8879 31.4111C26.4238 32.9026 21.606 32.9026 17.1418 31.4111L17.1389 31.4102C16.297 31.125 15.6655 30.5358 15.383 29.7734C15.1003 29.0098 15.1966 28.1499 15.6575 27.3838V27.3828L16.8069 25.4736C16.9162 25.2895 17.0358 24.9958 17.1282 24.6631C17.221 24.3288 17.2697 24.0144 17.2698 23.7998V20.9102C17.2698 18.0284 19.0821 15.5657 21.6272 14.5986C22.0945 13.7571 22.9915 13.1906 24.0198 13.1904Z" fill="black"/>
<circle cx="29" cy="17" r="3" fill="#5325CB"/>
</svg>
