<svg width="14" height="14" viewBox="0 0 14 14" fill="none" xmlns="http://www.w3.org/2000/svg">
<path d="M13.5837 6.99967C13.5837 10.6339 10.6339 13.5837 6.99967 13.5837C3.36561 13.5835 0.416664 10.6338 0.416664 6.99967C0.41684 3.36572 3.36572 0.41684 6.99967 0.416664C10.6338 0.416664 13.5835 3.36561 13.5837 6.99967Z" fill="#5325CB"/>
<path d="M6.03416 6.77244V4.38084C6.03416 3.96662 6.36995 3.63084 6.78416 3.63084C7.19838 3.63084 7.53416 3.96662 7.53416 4.38084V6.77244C7.53416 6.79473 7.54709 6.87176 7.6035 6.97068C7.63153 7.01979 7.66038 7.05677 7.68456 7.08298L7.73827 7.13084L7.74022 7.13181L9.54881 8.21091C9.90426 8.42319 10.0206 8.88365 9.80858 9.23923C9.59637 9.59482 9.13591 9.71102 8.78026 9.499L6.97166 8.4199V8.41892C6.67679 8.2435 6.45102 7.97719 6.30077 7.71384C6.15009 7.44964 6.03416 7.11764 6.03416 6.77244Z" fill="white"/>
</svg>
