<svg width="14" height="14" viewBox="0 0 14 14" fill="none" xmlns="http://www.w3.org/2000/svg">
<path d="M5.38374 7.12791C5.63426 7.46282 5.95387 7.73993 6.3209 7.94046C6.68793 8.14098 7.09379 8.26023 7.51096 8.2901C7.92812 8.31998 8.34683 8.25979 8.73869 8.11362C9.13055 7.96744 9.48639 7.7387 9.78208 7.44291L11.5321 5.69291C12.0634 5.14282 12.3574 4.40606 12.3507 3.64132C12.3441 2.87658 12.0373 2.14505 11.4965 1.60427C10.9558 1.0635 10.2242 0.756756 9.4595 0.75011C8.69475 0.743465 7.958 1.03745 7.40791 1.56874L6.40458 2.56624M7.71708 5.96124C7.46656 5.62633 7.14695 5.34922 6.77992 5.14869C6.41289 4.94817 6.00703 4.82892 5.58986 4.79905C5.1727 4.76917 4.75398 4.82936 4.36212 4.97554C3.97027 5.12171 3.61443 5.35045 3.31874 5.64624L1.56874 7.39624C1.03745 7.94633 0.743465 8.68309 0.75011 9.44783C0.756756 10.2126 1.0635 10.9441 1.60427 11.4849C2.14505 12.0257 2.87658 12.3324 3.64132 12.339C4.40606 12.3457 5.14282 12.0517 5.69291 11.5204L6.69041 10.5229" stroke="#BBBBBB" stroke-width="1.5" stroke-linecap="round" stroke-linejoin="round"/>
</svg>
