<svg width="32" height="32" viewBox="0 0 32 32" fill="none" xmlns="http://www.w3.org/2000/svg">
<rect width="32" height="32" rx="8" fill="#F8F8F8"/>
<ellipse opacity="0.5" cx="16" cy="24.6667" rx="8" ry="2" fill="#BBBBBB"/>
<mask id="path-3-inside-1_2710_6154" fill="white">
<path d="M16.0005 7.33331C19.6822 7.3335 22.6665 10.4378 22.6665 14.2669C22.6664 18.0958 19.3336 21.1999 16.0005 24.6663C12.6672 21.1997 9.33365 18.096 9.3335 14.2669C9.3335 10.4377 12.3186 7.33331 16.0005 7.33331ZM16.0005 11.3138C14.5278 11.3138 13.3336 12.5071 13.3335 13.9798C13.3335 15.4526 14.5277 16.6468 16.0005 16.6468C17.4731 16.6466 18.6665 15.4524 18.6665 13.9798C18.6664 12.5072 17.473 11.314 16.0005 11.3138Z"/>
</mask>
<path d="M16.0005 7.33331C19.6822 7.3335 22.6665 10.4378 22.6665 14.2669C22.6664 18.0958 19.3336 21.1999 16.0005 24.6663C12.6672 21.1997 9.33365 18.096 9.3335 14.2669C9.3335 10.4377 12.3186 7.33331 16.0005 7.33331ZM16.0005 11.3138C14.5278 11.3138 13.3336 12.5071 13.3335 13.9798C13.3335 15.4526 14.5277 16.6468 16.0005 16.6468C17.4731 16.6466 18.6665 15.4524 18.6665 13.9798C18.6664 12.5072 17.473 11.314 16.0005 11.3138Z" fill="url(#paint0_linear_2710_6154)"/>
<path d="M16.0005 7.33331L16.0005 7.13331H16.0005V7.33331ZM22.6665 14.2669L22.8665 14.2669V14.2669H22.6665ZM16.0005 24.6663L15.8563 24.8049C15.894 24.8442 15.9461 24.8663 16.0005 24.8663C16.0549 24.8663 16.1069 24.8442 16.1447 24.8049L16.0005 24.6663ZM9.3335 14.2669H9.1335V14.2669L9.3335 14.2669ZM16.0005 11.3138L16.0005 11.1138H16.0005V11.3138ZM13.3335 13.9798L13.1335 13.9798V13.9798H13.3335ZM16.0005 16.6468V16.8468H16.0005L16.0005 16.6468ZM18.6665 13.9798H18.8665V13.9798L18.6665 13.9798ZM16.0005 7.33331L16.0005 7.53331C19.5644 7.53349 22.4665 10.5408 22.4665 14.2669H22.6665H22.8665C22.8665 10.3349 19.8 7.1335 16.0005 7.13331L16.0005 7.33331ZM22.6665 14.2669L22.4665 14.2669C22.4664 16.1204 21.6604 17.8119 20.4226 19.4835C19.1827 21.1581 17.5293 22.7878 15.8563 24.5277L16.0005 24.6663L16.1447 24.8049C17.8048 23.0784 19.4844 21.4229 20.7441 19.7216C22.006 18.0174 22.8664 16.2424 22.8665 14.2669L22.6665 14.2669ZM16.0005 24.6663L16.1447 24.5277C14.4716 22.7877 12.818 21.158 11.5778 19.4835C10.3398 17.8119 9.53357 16.1204 9.5335 14.2669L9.3335 14.2669L9.1335 14.2669C9.13357 16.2424 9.99424 18.0174 11.2564 19.7216C12.5163 21.4228 14.1962 23.0784 15.8563 24.8049L16.0005 24.6663ZM9.3335 14.2669H9.5335C9.5335 10.5407 12.4364 7.53331 16.0005 7.53331V7.33331V7.13331C12.2008 7.13331 9.1335 10.3347 9.1335 14.2669H9.3335ZM16.0005 11.3138V11.1138C14.4174 11.1138 13.1336 12.3966 13.1335 13.9798L13.3335 13.9798L13.5335 13.9798C13.5336 12.6177 14.6382 11.5138 16.0005 11.5138V11.3138ZM13.3335 13.9798H13.1335C13.1335 15.563 14.4173 16.8468 16.0005 16.8468V16.6468V16.4468C14.6382 16.4468 13.5335 15.3421 13.5335 13.9798H13.3335ZM16.0005 16.6468L16.0005 16.8468C17.5836 16.8466 18.8665 15.5628 18.8665 13.9798H18.6665H18.4665C18.4665 15.342 17.3625 16.4466 16.0005 16.4468L16.0005 16.6468ZM18.6665 13.9798L18.8665 13.9798C18.8664 12.3968 17.5835 11.114 16.0005 11.1138L16.0005 11.3138L16.0005 11.5138C17.3626 11.514 18.4664 12.6177 18.4665 13.9798L18.6665 13.9798Z" fill="white" fill-opacity="0.5" mask="url(#path-3-inside-1_2710_6154)"/>
<defs>
<linearGradient id="paint0_linear_2710_6154" x1="16" y1="7.33331" x2="16" y2="24.6663" gradientUnits="userSpaceOnUse">
<stop stop-color="#5325CB"/>
<stop offset="1" stop-color="#8557FF"/>
</linearGradient>
</defs>
</svg>
