<svg width="157" height="52" viewBox="0 0 157 52" fill="none" xmlns="http://www.w3.org/2000/svg">
<g filter="url(#filter0_d_1779_3276)">
<mask id="path-1-inside-1_1779_3276" fill="white">
<path d="M74.9951 36H23C15.8203 36 10 30.1797 10 23C10 15.8203 15.8203 10 23 10H134C141.18 10 147 15.8203 147 23C147 30.1797 141.18 36 134 36H81.9951L78.4951 42L74.9951 36Z"/>
</mask>
<path d="M74.9951 36H23C15.8203 36 10 30.1797 10 23C10 15.8203 15.8203 10 23 10H134C141.18 10 147 15.8203 147 23C147 30.1797 141.18 36 134 36H81.9951L78.4951 42L74.9951 36Z" fill="white"/>
<path d="M74.9951 36L75.8589 35.4961L75.5695 35H74.9951V36ZM23 36V37V36ZM23 10V9V10ZM134 10V9V10ZM134 36V37V36ZM81.9951 36V35H81.4207L81.1313 35.4961L81.9951 36ZM78.4951 42L77.6313 42.5039L78.4951 43.9846L79.3589 42.5039L78.4951 42ZM74.9951 36V35H23V36V37H74.9951V36ZM23 36V35C16.3726 35 11 29.6274 11 23H10H9C9 30.732 15.268 37 23 37V36ZM10 23H11C11 16.3726 16.3726 11 23 11V10V9C15.268 9 9 15.268 9 23H10ZM23 10V11H134V10V9H23V10ZM134 10V11C140.627 11 146 16.3726 146 23H147H148C148 15.268 141.732 9 134 9V10ZM147 23H146C146 29.6274 140.627 35 134 35V36V37C141.732 37 148 30.732 148 23H147ZM134 36V35H81.9951V36V37H134V36ZM81.9951 36L81.1313 35.4961L77.6313 41.4961L78.4951 42L79.3589 42.5039L82.8589 36.5039L81.9951 36ZM78.4951 42L79.3589 41.4961L75.8589 35.4961L74.9951 36L74.1313 36.5039L77.6313 42.5039L78.4951 42Z" fill="#5325CB" mask="url(#path-1-inside-1_1779_3276)"/>
</g>
<path d="M35.4619 19.9297V27H34.3779V21.0039H34.3389L32.6494 22.1074V21.082L34.4072 19.9297H35.4619ZM39.7197 27.0977C38.0791 27.0977 37.1221 25.7793 37.1221 23.4648C37.1221 21.1699 38.0986 19.832 39.7197 19.832C41.3408 19.832 42.3174 21.1699 42.3174 23.4648C42.3174 25.7793 41.3506 27.0977 39.7197 27.0977ZM39.7197 26.1699C40.6768 26.1699 41.2432 25.2324 41.2432 23.4648C41.2432 21.707 40.667 20.7402 39.7197 20.7402C38.7725 20.7402 38.1963 21.707 38.1963 23.4648C38.1963 25.2324 38.7627 26.1699 39.7197 26.1699ZM51.1357 25.9941V26.7559H43.1279V25.9941H46.6631V24.0898H47.5811V25.9941H51.1357ZM50.3936 20.4082V21.1602H47.5908C47.6299 22.3857 48.9287 23.4014 50.7256 23.6699L50.374 24.3926C48.9141 24.1631 47.6934 23.4697 47.1221 22.4492C46.5508 23.4697 45.335 24.1631 43.8701 24.3926L43.5186 23.6699C45.3154 23.4014 46.6045 22.3857 46.6533 21.1602H43.8506V20.4082H46.6631V19.2363H47.5811V20.4082H50.3936ZM56.2041 19.8516V23.9336H52.1123V19.8516H56.2041ZM53.0205 20.6035V23.2012H55.2959V20.6035H53.0205ZM58.6455 19.0703V21.6875H59.915V22.4688H58.6455V25.4863H57.7178V19.0703H58.6455ZM59.0166 26.8926V27.6445H53.0986V24.8711H54.0264V26.8926H59.0166ZM67.9424 19.0801V27.8301H67.0537V19.0801H67.9424ZM66.165 19.2461V27.4004H65.2764V23.1816H64.29C64.2119 24.8906 63.4795 25.9551 62.3955 25.9453C61.2529 25.9551 60.5107 24.7539 60.5107 22.8594C60.5107 20.9648 61.2529 19.7734 62.3955 19.7832C63.46 19.7734 64.1826 20.7842 64.29 22.4297H65.2764V19.2461H66.165ZM62.3955 20.6523C61.7607 20.6523 61.3701 21.4629 61.3701 22.8594C61.3701 24.2559 61.7607 25.0664 62.3955 25.0664C63.04 25.0664 63.4404 24.2559 63.4404 22.8594C63.4404 21.4629 63.04 20.6523 62.3955 20.6523ZM78.5869 19.0801V22.4395H79.6807V23.2207H78.5869V27.8301H77.6689V19.0801H78.5869ZM72.415 19.8809V22.0684H73.3428V19.8809H74.1143V25.7402H71.6436V19.8809H72.415ZM72.415 24.9688H73.3428V22.8105H72.415V24.9688ZM75.3154 19.8809V22.0684H76.2236V19.8809H76.9951V25.7402H74.5439V19.8809H75.3154ZM75.3154 24.9688H76.2236V22.8105H75.3154V24.9688ZM88.1475 25.9941V26.7559H80.1396V25.9941H88.1475ZM87.1709 19.7246V22.459H82.0342V23.7383H87.376V24.4805H81.1162V21.707H86.2529V20.4766H81.0967V19.7246H87.1709ZM96.3018 19.0801V27.8301H95.4229V19.0801H96.3018ZM94.4561 19.3047V27.4004H93.5771V23.3379H91.8682C91.3457 24.3535 90.5156 25.2422 89.2803 25.9648L88.7529 25.3008C90.6084 24.1973 91.502 22.7275 91.6631 20.9258H89.1631V20.1641H92.5811C92.5762 21.0186 92.459 21.834 92.1904 22.5957H93.5771V19.3047H94.4561ZM107.103 19.0801V27.8301H106.175V19.0801H107.103ZM99.915 25.4473C100.633 25.4424 101.458 25.4375 102.317 25.4082V24.5391C101.292 24.4072 100.628 23.8066 100.638 22.9473C100.628 21.9609 101.487 21.3066 102.757 21.3066C104.036 21.3066 104.915 21.9609 104.915 22.9473C104.915 23.7969 104.251 24.3926 103.235 24.5293V25.3789C104.046 25.3447 104.866 25.2812 105.638 25.1836L105.706 25.877C103.763 26.1992 101.644 26.2188 100.042 26.2188L99.915 25.4473ZM105.442 20.125V20.8672H100.101V20.125H102.317V19.0996H103.245V20.125H105.442ZM102.757 22.0293C102.024 22.0293 101.507 22.3906 101.517 22.9473C101.507 23.5039 102.024 23.8457 102.757 23.8457C103.509 23.8457 104.026 23.5039 104.026 22.9473C104.026 22.3906 103.509 22.0293 102.757 22.0293ZM115.784 19.0898V25.7207H114.856V24.8809H113.099V24.2266H114.856V19.0898H115.784ZM115.999 26.8926V27.6445H109.681V25.0762H110.599V26.8926H115.999ZM108.47 23.084C110.091 23.0742 112.269 23.0547 114.134 22.8203L114.192 23.4844C113.445 23.6064 112.659 23.6895 111.888 23.7383V25.4473H110.96V23.7871C110.11 23.8262 109.295 23.8311 108.587 23.8262L108.47 23.084ZM111.331 19.4219C112.61 19.4219 113.499 20.0371 113.499 20.9648C113.499 21.8926 112.61 22.4883 111.331 22.4883C110.032 22.4883 109.153 21.8926 109.153 20.9648C109.153 20.0371 110.032 19.4219 111.331 19.4219ZM111.331 20.1152C110.55 20.1055 110.022 20.4375 110.032 20.9648C110.022 21.4824 110.55 21.8047 111.331 21.8047C112.083 21.8047 112.61 21.4824 112.62 20.9648C112.61 20.4375 112.083 20.1055 111.331 20.1152ZM123.968 19.0801V22.5664H125.325V23.3379H123.968V27.8203H123.04V19.0801H123.968ZM121.683 19.998C121.673 22.5273 120.56 24.7832 117.679 26.209L117.161 25.4863C119.354 24.3926 120.545 22.8105 120.735 20.7695H117.601V19.998H121.683ZM133.05 19.0801V23.7773H132.122V19.0801H133.05ZM128.235 24.1973V25.1836H132.132V24.1973H133.05V27.7227H127.327V24.1973H128.235ZM128.235 26.9609H132.132V25.916H128.235V26.9609ZM128.304 19.4805C129.642 19.4805 130.628 20.3105 130.628 21.5117C130.628 22.7129 129.642 23.543 128.304 23.5332C126.966 23.543 125.97 22.7129 125.97 21.5117C125.97 20.3105 126.966 19.4805 128.304 19.4805ZM128.304 20.2617C127.474 20.252 126.878 20.7695 126.878 21.5117C126.878 22.2637 127.474 22.7715 128.304 22.7715C129.124 22.7715 129.72 22.2637 129.72 21.5117C129.72 20.7695 129.124 20.252 128.304 20.2617ZM136.048 19.9297L135.96 24.959H134.993L134.905 19.9297H136.048ZM135.481 27.0684C135.101 27.0684 134.778 26.7559 134.788 26.375C134.778 25.9941 135.101 25.6816 135.481 25.6816C135.853 25.6816 136.175 25.9941 136.175 26.375C136.175 26.7559 135.853 27.0684 135.481 27.0684Z" fill="#5325CB"/>
<mask id="path-4-outside-2_1779_3276" maskUnits="userSpaceOnUse" x="19" y="15" width="10" height="16" fill="black">
<rect fill="white" x="19" y="15" width="10" height="16"/>
<path d="M24.8398 22.125H28L21.7773 30L23.1602 23.875H20L26.2227 16L24.8398 22.125Z"/>
</mask>
<path d="M24.8398 22.125H28L21.7773 30L23.1602 23.875H20L26.2227 16L24.8398 22.125Z" fill="url(#paint0_linear_1779_3276)"/>
<path d="M24.8398 22.125L24.3521 22.0149C24.3187 22.1631 24.3544 22.3185 24.4493 22.4372C24.5442 22.5559 24.6879 22.625 24.8398 22.625V22.125ZM28 22.125L28.3923 22.435C28.5111 22.2846 28.5335 22.0795 28.45 21.9071C28.3665 21.7346 28.1917 21.625 28 21.625V22.125ZM21.7773 30L21.2896 29.8899C21.2382 30.1176 21.3512 30.3506 21.5619 30.4512C21.7726 30.5518 22.0249 30.4932 22.1697 30.31L21.7773 30ZM23.1602 23.875L23.6479 23.9851C23.6813 23.8369 23.6456 23.6815 23.5507 23.5628C23.4558 23.4441 23.3121 23.375 23.1602 23.375V23.875ZM20 23.875L19.6077 23.565C19.4889 23.7154 19.4665 23.9205 19.55 24.0929C19.6335 24.2654 19.8083 24.375 20 24.375V23.875ZM26.2227 16L26.7104 16.1101C26.7618 15.8824 26.6488 15.6494 26.4381 15.5488C26.2274 15.4482 25.9751 15.5068 25.8303 15.69L26.2227 16ZM24.8398 22.125V22.625H28V22.125V21.625H24.8398V22.125ZM28 22.125L27.6077 21.815L21.385 29.69L21.7773 30L22.1697 30.31L28.3923 22.435L28 22.125ZM21.7773 30L22.2651 30.1101L23.6479 23.9851L23.1602 23.875L22.6724 23.7649L21.2896 29.8899L21.7773 30ZM23.1602 23.875V23.375H20V23.875V24.375H23.1602V23.875ZM20 23.875L20.3923 24.185L26.615 16.31L26.2227 16L25.8303 15.69L19.6077 23.565L20 23.875ZM26.2227 16L25.7349 15.8899L24.3521 22.0149L24.8398 22.125L25.3276 22.2351L26.7104 16.1101L26.2227 16Z" fill="#D9AE00" mask="url(#path-4-outside-2_1779_3276)"/>
<defs>
<filter id="filter0_d_1779_3276" x="0" y="0" width="157" height="52" filterUnits="userSpaceOnUse" color-interpolation-filters="sRGB">
<feFlood flood-opacity="0" result="BackgroundImageFix"/>
<feColorMatrix in="SourceAlpha" type="matrix" values="0 0 0 0 0 0 0 0 0 0 0 0 0 0 0 0 0 0 127 0" result="hardAlpha"/>
<feOffset/>
<feGaussianBlur stdDeviation="5"/>
<feComposite in2="hardAlpha" operator="out"/>
<feColorMatrix type="matrix" values="0 0 0 0 0.072596 0 0 0 0 0.0178733 0 0 0 0 0.216496 0 0 0 0.2 0"/>
<feBlend mode="normal" in2="BackgroundImageFix" result="effect1_dropShadow_1779_3276"/>
<feBlend mode="normal" in="SourceGraphic" in2="effect1_dropShadow_1779_3276" result="shape"/>
</filter>
<linearGradient id="paint0_linear_1779_3276" x1="25.7778" y1="18.625" x2="22.3177" y2="27.4126" gradientUnits="userSpaceOnUse">
<stop offset="0.168269" stop-color="#FFD000"/>
<stop offset="0.745192" stop-color="#FFBF00"/>
</linearGradient>
</defs>
</svg>
