<svg width="48" height="48" viewBox="0 0 48 48" fill="none" xmlns="http://www.w3.org/2000/svg">
<path d="M21.1824 16.6923L21.8669 14.9846C21.9824 14.6955 22.1855 14.4468 22.4496 14.2711C22.7138 14.0954 23.0267 14.0009 23.3473 14H24.6527C24.9733 14.0009 25.2862 14.0954 25.5504 14.2711C25.8145 14.4468 26.0176 14.6955 26.1331 14.9846L26.8176 16.6923L29.1416 17.9846L31.02 17.7077C31.3328 17.6667 31.6511 17.7164 31.9346 17.8507C32.218 17.9849 32.4537 18.1975 32.6119 18.4615L33.2486 19.5385C33.4118 19.8067 33.4869 20.1164 33.4642 20.4268C33.4415 20.7372 33.3219 21.0336 33.1212 21.2769L31.9592 22.7077V25.2923L33.1531 26.7231C33.3537 26.9664 33.4733 27.2628 33.496 27.5732C33.5188 27.8836 33.4436 28.1933 33.2804 28.4615L32.6437 29.5385C32.4856 29.8025 32.2498 30.0151 31.9664 30.1493C31.683 30.2836 31.3646 30.3333 31.0519 30.2923L29.1735 30.0154L26.8494 31.3077L26.1649 33.0154C26.0495 33.3045 25.8464 33.5532 25.5822 33.7289C25.3181 33.9046 25.0052 33.9991 24.6845 34H23.3473C23.0267 33.9991 22.7138 33.9046 22.4496 33.7289C22.1855 33.5532 21.9824 33.3045 21.8669 33.0154L21.1824 31.3077L18.8584 30.0154L16.98 30.2923C16.6672 30.3333 16.3489 30.2836 16.0654 30.1493C15.782 30.0151 15.5463 29.8025 15.3881 29.5385L14.7514 28.4615C14.5882 28.1933 14.5131 27.8836 14.5358 27.5732C14.5585 27.2628 14.6781 26.9664 14.8788 26.7231L16.0408 25.2923V22.7077L14.8469 21.2769C14.6463 21.0336 14.5267 20.7372 14.504 20.4268C14.4812 20.1164 14.5564 19.8067 14.7196 19.5385L15.3563 18.4615C15.5144 18.1975 15.7502 17.9849 16.0336 17.8507C16.317 17.7164 16.6354 17.6667 16.9481 17.7077L18.8265 17.9846L21.1824 16.6923ZM20.8163 24C20.8163 24.6086 21.003 25.2034 21.3529 25.7094C21.7027 26.2154 22.1999 26.6098 22.7817 26.8427C23.3634 27.0756 24.0035 27.1365 24.6211 27.0178C25.2387 26.8991 25.806 26.606 26.2512 26.1757C26.6964 25.7454 26.9997 25.1971 27.1225 24.6003C27.2454 24.0034 27.1823 23.3847 26.9413 22.8225C26.7004 22.2603 26.2923 21.7797 25.7688 21.4416C25.2452 21.1035 24.6297 20.9231 24 20.9231C23.1556 20.9231 22.3459 21.2473 21.7488 21.8243C21.1517 22.4013 20.8163 23.1839 20.8163 24Z" stroke="black" stroke-width="1.5" stroke-linecap="round" stroke-linejoin="round"/>
</svg>
