<svg width="13" height="13" viewBox="0 0 13 13" fill="none" xmlns="http://www.w3.org/2000/svg">
<path d="M6.02958 0.357954C6.17765 -0.119319 6.82235 -0.119318 6.97042 0.357956L8.16577 4.21096C8.23199 4.4244 8.4219 4.56892 8.63619 4.56892H12.5044C12.9836 4.56892 13.1828 5.21108 12.7952 5.50605L9.66569 7.88734C9.49233 8.01926 9.41979 8.25308 9.48601 8.46653L10.6814 12.3195C10.8294 12.7968 10.3078 13.1937 9.9202 12.8987L6.79074 10.5174C6.61737 10.3855 6.38263 10.3855 6.20926 10.5174L3.0798 12.8987C2.69215 13.1937 2.17057 12.7968 2.31864 12.3195L3.51399 8.46653C3.58021 8.25308 3.50767 8.01926 3.33431 7.88734L0.204841 5.50605C-0.182807 5.21108 0.0164195 4.56892 0.495579 4.56892H4.36381C4.5781 4.56892 4.76801 4.4244 4.83423 4.21096L6.02958 0.357954Z" fill="#5325CB"/>
</svg>
